<svg id="Layer_1" data-name="Layer 1" xmlns="http://www.w3.org/2000/svg" width="112.01" height="48" viewBox="0 0 112.01 48"><defs><style>.cls-1{fill:#177D78}</style></defs><path class="cls-1" d="M16.06 2.84A9.35 9.35 0 0 0 12.54.78 22.9 22.9 0 0 0 6.71.16L.14.14 0 47.17h5.47l.06-20.68h1.58c4.13 0 7.3-1.07 9.49-3.36s3.18-5.43 3.19-9.66a16.38 16.38 0 0 0-.95-6.17 9.81 9.81 0 0 0-2.78-4.46zm-3.33 16.21c-1 1.2-2.79 1.8-5.24 1.79H5.55V5.71h1.63a8.12 8.12 0 0 1 5.58 1.71c1.09 1.21 1.57 3.15 1.56 5.68 0 2.79-.49 4.72-1.59 5.93zM33.63 22.58l-.85-.85c-4-3.61-6.06-6.86-6.05-9.5a7.25 7.25 0 0 1 1.6-4.67 5.63 5.63 0 0 1 4.14-1.66 6.87 6.87 0 0 1 3 .6 13.8 13.8 0 0 1 3.16 1.93V2.17A16.06 16.06 0 0 0 35.16.48 12.54 12.54 0 0 0 31.51 0a9.28 9.28 0 0 0-7.29 3.44 13.54 13.54 0 0 0-2.94 8.88 14 14 0 0 0 1.44 6.49 24.18 24.18 0 0 0 5.07 6.38 7.33 7.33 0 0 0 1 1c3.75 3.61 5.69 6.74 5.68 9.5a6.55 6.55 0 0 1-1.47 4.4 5.57 5.57 0 0 1-4 1.66 7.86 7.86 0 0 1-3.2-.75 14.71 14.71 0 0 1-3.54-1.94v6.37a12.75 12.75 0 0 0 3.64 1.8 11.34 11.34 0 0 0 3.4.62 10 10 0 0 0 7.7-3.44 13.54 13.54 0 0 0 2.95-8.87 15.67 15.67 0 0 0-1.44-6.85 22.76 22.76 0 0 0-4.88-6.11zM41.96 47.3l16.16.05.02-5.92-10.69-.03.04-15.85 9.85.03.01-5.68-9.84-.03.04-13.91 10.7.03.02-5.67L42.1.27l-.14 47.03zM73.47.12c-4.25 0-7.54 2-9.74 6.09s-3.32 10.18-3.34 18.23c0 7.79.93 13.68 3 17.65S68.58 48 72.71 48a10.65 10.65 0 0 0 2.92-.45 9.47 9.47 0 0 0 2.79-1.2v-6.13a28 28 0 0 1-2.56 1.31 7.91 7.91 0 0 1-2.32.35c-2.67 0-4.63-1.34-5.82-4.22s-1.93-7.33-1.91-13.33c0-6.36.65-11 2-13.89S71.36 6 74.28 6a5.38 5.38 0 0 1 1.94.36 11.5 11.5 0 0 1 2.32 1v-6a8.23 8.23 0 0 0-2.4-.87 9.67 9.67 0 0 0-2.67-.37zM96.79 12.87L96.72 35a12.37 12.37 0 0 1-.3 2.71 6 6 0 0 1-1.06 2.36 4.74 4.74 0 0 1-4 1.57 4.72 4.72 0 0 1-4-1.59 5.28 5.28 0 0 1-.85-1.67c-.06-.19-.11-.38-.16-.58v-.12A11.77 11.77 0 0 1 86 35l.13-35h-5.35l-.1 34.46a31.33 31.33 0 0 0 .14 3.21 13.18 13.18 0 0 0 2.38 6.84c1.69 2.06 4.36 3.16 8.13 3.17h1A9.7 9.7 0 0 0 99.14 45c.11-.1.2-.22.3-.33a9 9 0 0 0 .87-1.34 12.54 12.54 0 0 0 1-2.44c.06-.23.12-.46.17-.69a1 1 0 0 1 .06-.25c0-.09.06-.3.09-.47s.07-.37.11-.56 0-.24 0-.35.07-.47.1-.72a31.18 31.18 0 0 0 .17-3.2l.15-34.56h-5.34zM105.19 3.45a1.77 1.77 0 0 0 .9.25c.51 0 .81-.26.82-.66s-.23-.57-.73-.77-1-.56-1-1.11A1.16 1.16 0 0 1 106.41.1a1.87 1.87 0 0 1 .87.19l-.15.41a1.57 1.57 0 0 0-.74-.19c-.53 0-.73.32-.73.59s.24.54.77.75 1 .58 1 1.15a1.21 1.21 0 0 1-1.37 1.13 2 2 0 0 1-1-.26zM111.4 2.37c0-.54-.06-1.2-.05-1.68-.14.46-.3 1-.5 1.48l-.69 1.89h-.39l-.62-1.85a24.5 24.5 0 0 1-.46-1.52c0 .47 0 1.14-.08 1.73l-.11 1.67h-.5l.29-3.9h.71l.66 1.89c.16.46.29.92.39 1.31.1-.39.24-.82.41-1.31l.7-1.88h.65l.23 3.9h-.49z"/></svg>